# xmcd CD database file
#
# Track frame offsets:
#	150
#	13423
#	24267
#	45028
#	69383
#	87206
#	107788
#	118091
#	136772
#	153985
#	171267
#	187045
#	200772
#	225911
#
# Disc length: 3150 seconds
#
# Revision: 0
# Processed by: cddbd v1.5.2PL0 Copyright (c) Steve Scherf et al.
# Submitted via: CDex 2.02
#
DISCID=ae0c4c0e
DTITLE=Mud Bay Stompers - Steppin'
DYEAR=1900
DGENRE=Blues
TTITLE0=Tight Like That
TTITLE1=Papa's On The Housetop
TTITLE2=Jackson Stomp
TTITLE3=Grizzly Bear Rag
TTITLE4=Bullfrog Blues
TTITLE5=St. Louis Blues
TTITLE6=Overseas Stomp
TTITLE7=San Francisco Bay Blues
TTITLE8=Keep It Clean
TTITLE9=The Duck Yass Yass Yass
TTITLE10=Tear It Down
TTITLE11=Walk Right In
TTITLE12=Leavin' Trunk
TTITLE13=Linin' Track
EXTD=
EXTT0=
EXTT1=
EXTT2=
EXTT3=
EXTT4=
EXTT5=
EXTT6=
EXTT7=
EXTT8=
EXTT9=
EXTT10=
EXTT11=
EXTT12=
EXTT13=
PLAYORDER=
